<svg xmlns="http://www.w3.org/2000/svg" xmlns:xlink="http://www.w3.org/1999/xlink" width="1440" height="900" version="1.1" viewBox="0 0 1440 900"><desc>Created with Lunacy</desc><defs><rect id="artboard_1" width="1440" height="900"/><clipPath id="clip_1"><use clip-rule="evenodd" xlink:href="#artboard_1"/></clipPath></defs><g id="MacBook-Pro-15&quot;" clip-path="url(#clip_1)"><use fill="#01152A" fill-opacity="0" stroke="none" xlink:href="#artboard_1"/><g id="Pattern" transform="translate(0 -14)"><path id="Line" fill="none" stroke="#686868" stroke-opacity=".039" stroke-width="3" d="M1 0L1 928"/><path id="Line-Copy" fill="none" stroke="#686868" stroke-opacity=".039" stroke-width="3" d="M1 0L1 928" transform="translate(49 0)"/><path id="Line-Copy-2" fill="none" stroke="#686868" stroke-opacity=".039" stroke-width="3" d="M1 0L1 928" transform="translate(98 0)"/><path id="Line-Copy-3" fill="none" stroke="#686868" stroke-opacity=".039" stroke-width="3" d="M1 0L1 928" transform="translate(147 0)"/><path id="Line-Copy-4" fill="none" stroke="#686868" stroke-opacity=".039" stroke-width="3" d="M1 0L1 928" transform="translate(196 0)"/><path id="Line-Copy-5" fill="none" stroke="#686868" stroke-opacity=".039" stroke-width="3" d="M1 0L1 928" transform="translate(245 0)"/><path id="Line-Copy-6" fill="none" stroke="#686868" stroke-opacity=".039" stroke-width="3" d="M1 0L1 928" transform="translate(294 0)"/><path id="Line-Copy-7" fill="none" stroke="#686868" stroke-opacity=".039" stroke-width="3" d="M1 0L1 928" transform="translate(343 0)"/><path id="Line-Copy-8" fill="none" stroke="#686868" stroke-opacity=".039" stroke-width="3" d="M1 0L1 928" transform="translate(392 0)"/><path id="Line-Copy-9" fill="none" stroke="#686868" stroke-opacity=".039" stroke-width="3" d="M1 0L1 928" transform="translate(441 0)"/><path id="Line-Copy-10" fill="none" stroke="#686868" stroke-opacity=".039" stroke-width="3" d="M1 0L1 928" transform="translate(490 0)"/><path id="Line-Copy-11" fill="none" stroke="#686868" stroke-opacity=".039" stroke-width="3" d="M1 0L1 928" transform="translate(539 0)"/><path id="Line-Copy-12" fill="none" stroke="#686868" stroke-opacity=".039" stroke-width="3" d="M1 0L1 928" transform="translate(588 0)"/><path id="Line-Copy-13" fill="none" stroke="#686868" stroke-opacity=".039" stroke-width="3" d="M1 0L1 928" transform="translate(637 0)"/><path id="Line-Copy-14" fill="none" stroke="#686868" stroke-opacity=".039" stroke-width="3" d="M1 0L1 928" transform="translate(686 0)"/><path id="Line-Copy-15" fill="none" stroke="#686868" stroke-opacity=".039" stroke-width="3" d="M1 0L1 928" transform="translate(735 0)"/><path id="Line-Copy-16" fill="none" stroke="#686868" stroke-opacity=".039" stroke-width="3" d="M1 0L1 928" transform="translate(784 0)"/></g></g></svg>